<?xml version="1.0" encoding="UTF-8" standalone="no"?>
<!DOCTYPE svg PUBLIC "-//W3C//DTD SVG 1.1//EN" "http://www.w3.org/Graphics/SVG/1.1/DTD/svg11.dtd">
<svg width="100%" height="100%" viewBox="0 0 62 68" version="1.1" xmlns="http://www.w3.org/2000/svg" xmlns:xlink="http://www.w3.org/1999/xlink" xml:space="preserve" xmlns:serif="http://www.serif.com/" style="fill-rule:evenodd;clip-rule:evenodd;stroke-linejoin:round;stroke-miterlimit:2;">
    <g transform="matrix(1,0,0,1,-9.47834e-05,0.000211198)">
        <g transform="matrix(1,0,0,1,-293.917,-13.525)">
            <g id="Logo" transform="matrix(-0.436782,5.34903e-17,-5.34903e-17,-0.436782,331.227,11.9646)">
                <g id="Dots">
                    <g transform="matrix(-1.9821,-2.42738e-16,2.42738e-16,-1.9821,463.548,289.423)">
                        <circle cx="240" cy="188" r="3"/>
                    </g>
                    <g transform="matrix(-1.9821,-2.42738e-16,2.42738e-16,-1.9821,490.307,289.423)">
                        <circle cx="240" cy="188" r="3"/>
                    </g>
                    <g transform="matrix(-1.9821,-2.42738e-16,2.42738e-16,-1.9821,517.065,289.423)">
                        <circle cx="240" cy="188" r="3"/>
                    </g>
                </g>
                <g transform="matrix(1,-2.46519e-32,2.46519e-32,1,-289.428,-167.966)">
                    <path d="M242.857,88.995L242.857,77.32C242.857,61.301 255.863,48.295 271.882,48.295L301.759,48.295L301.759,68.061L281.588,68.061C271.055,68.061 262.504,76.612 262.504,87.145L262.504,125.314C262.504,135.846 271.055,144.398 281.588,144.398L301.759,144.398L301.759,164.394L271.882,164.394C255.863,164.394 242.857,151.389 242.857,135.369L242.857,123.8C242.857,109.265 233.212,106.358 233.212,106.358C233.212,106.358 242.857,103.208 242.857,88.995Z" style="fill:url(#_Linear1);"/>
                </g>
                <g transform="matrix(-1,-1.22465e-16,1.22465e-16,-1,318.632,44.7228)">
                    <path d="M242.857,88.995L242.857,77.32C242.857,61.301 255.863,48.295 271.882,48.295L301.759,48.295L301.759,68.061L281.588,68.061C271.055,68.061 262.504,76.612 262.504,87.145L262.504,125.314C262.504,135.846 271.055,144.398 281.588,144.398L301.759,144.398L301.759,164.394L271.882,164.394C255.863,164.394 242.857,151.389 242.857,135.369L242.857,123.8C242.857,109.265 233.212,106.358 233.212,106.358C233.212,106.358 242.857,103.208 242.857,88.995Z" style="fill:url(#_Linear2);"/>
                </g>
            </g>
            <g id="Letters" transform="matrix(1.20682,8.4021e-23,-7.2702e-23,0.715545,73.207,6.70924)">
                <g transform="matrix(1,0,0,1,0,0.453)">
                    <path d="M196.81,103.003L195.675,103.003C195.68,102.539 195.686,101.683 195.693,100.434C195.7,99.185 195.703,97.628 195.703,95.764C195.634,95.764 195.226,95.763 194.479,95.759C193.731,95.755 193.169,95.753 192.793,95.753C192.34,95.753 191.795,95.755 191.16,95.759C190.525,95.763 190.18,95.764 190.125,95.764C190.125,97.914 190.128,99.542 190.135,100.648C190.142,101.754 190.148,102.539 190.152,103.003L189.017,103.003C189.022,102.539 189.029,101.716 189.038,100.532C189.047,99.349 189.052,97.35 189.052,94.535C189.052,93.684 189.048,92.648 189.041,91.426C189.034,90.204 189.026,88.885 189.017,87.47L190.152,87.47C190.152,88.646 190.148,89.8 190.138,90.933C190.129,92.066 190.125,93.143 190.125,94.164C190.18,94.164 190.479,94.166 191.022,94.169C191.566,94.173 192.158,94.175 192.8,94.175C193.296,94.175 193.892,94.173 194.589,94.169C195.286,94.166 195.657,94.164 195.703,94.164C195.703,93.143 195.698,92.068 195.689,90.939C195.68,89.809 195.675,88.653 195.675,87.47L196.81,87.47C196.801,88.638 196.793,89.987 196.786,91.519C196.779,93.05 196.776,94.299 196.776,95.266C196.776,97.539 196.781,99.281 196.79,100.492C196.799,101.702 196.806,102.539 196.81,103.003Z" style="fill-rule:nonzero;"/>
                </g>
                <g transform="matrix(1,0,0,1,0,0.453)">
                    <path d="M201.164,103.003L200.029,103.003C200.034,102.539 200.041,101.712 200.05,100.521C200.059,99.33 200.064,97.621 200.064,95.393C200.064,94.512 200.062,93.355 200.057,91.925C200.052,90.494 200.043,89.009 200.029,87.47L201.164,87.47C201.155,88.576 201.147,89.862 201.14,91.327C201.133,92.793 201.13,93.99 201.13,94.918C201.13,97.269 201.135,99.088 201.144,100.376C201.153,101.663 201.16,102.539 201.164,103.003Z" style="fill-rule:nonzero;"/>
                </g>
                <g transform="matrix(1,0,0,1,0,0.453)">
                    <path d="M210.739,89.117C210.666,89.117 210.358,89.113 209.817,89.106C209.276,89.098 208.458,89.094 207.362,89.094C207.352,90.68 207.346,91.882 207.341,92.702C207.336,93.522 207.334,94.639 207.334,96.054C207.334,97.416 207.338,98.798 207.344,100.202C207.351,101.605 207.357,102.539 207.362,103.003L206.227,103.003C206.236,102.539 206.244,101.592 206.251,100.161C206.258,98.73 206.261,97.331 206.261,95.962L206.261,92.754C206.261,91.961 206.254,90.741 206.24,89.094C205.264,89.086 204.472,89.088 203.864,89.1C203.256,89.111 202.923,89.117 202.863,89.117L202.863,87.505C203.336,87.505 203.91,87.509 204.586,87.516C205.263,87.524 205.984,87.528 206.749,87.528C207.859,87.528 208.787,87.524 209.532,87.516C210.277,87.509 210.679,87.505 210.739,87.505L210.739,89.117Z" style="fill-rule:nonzero;"/>
                </g>
                <g transform="matrix(1,0,0,1,0,0.244)">
                    <path d="M218.511,101.576C218.507,101.646 218.494,101.841 218.473,102.162C218.453,102.483 218.433,102.833 218.415,103.212L218.174,103.212C217.055,103.212 216.06,102.974 215.189,102.499C214.318,102.023 213.603,101.333 213.043,100.428C212.653,99.802 212.345,99.051 212.118,98.177C211.891,97.303 211.777,96.306 211.777,95.184C211.777,94.179 211.89,93.261 212.115,92.429C212.339,91.598 212.633,90.873 212.995,90.254C213.522,89.357 214.231,88.646 215.12,88.12C216.01,87.594 216.961,87.331 217.975,87.331L218.284,87.331C218.289,87.47 218.298,87.692 218.312,87.998C218.326,88.303 218.342,88.634 218.36,88.99L218.126,88.99C217.553,88.99 216.959,89.096 216.345,89.309C215.73,89.521 215.201,89.84 214.756,90.266C214.178,90.823 213.733,91.536 213.421,92.406C213.11,93.276 212.954,94.214 212.954,95.219C212.954,96.263 213.094,97.213 213.373,98.067C213.653,98.922 214.095,99.639 214.701,100.219C215.196,100.699 215.75,101.047 216.362,101.263C216.974,101.48 217.583,101.588 218.188,101.588L218.319,101.588C218.378,101.588 218.443,101.584 218.511,101.576Z" style="fill-rule:nonzero;"/>
                </g>
                <path d="M228.698,95.242C228.698,96.495 228.571,97.646 228.316,98.694C228.062,99.742 227.73,100.606 227.322,101.286C226.868,102.044 226.387,102.595 225.878,102.939C225.369,103.284 224.823,103.456 224.241,103.456C223.672,103.456 223.136,103.291 222.631,102.963C222.127,102.634 221.673,102.145 221.27,101.495C220.825,100.791 220.466,99.904 220.193,98.833C219.92,97.762 219.784,96.557 219.784,95.219C219.784,94.028 219.892,92.944 220.107,91.965C220.323,90.987 220.646,90.107 221.077,89.326C221.476,88.599 221.95,88.036 222.501,87.638C223.051,87.24 223.631,87.041 224.241,87.041C224.86,87.041 225.433,87.228 225.96,87.603C226.488,87.978 226.944,88.499 227.329,89.164C227.779,89.937 228.119,90.848 228.351,91.896C228.582,92.944 228.698,94.059 228.698,95.242ZM227.522,95.428C227.522,94.423 227.422,93.435 227.223,92.464C227.023,91.493 226.719,90.68 226.311,90.022C226.036,89.574 225.728,89.226 225.386,88.978C225.045,88.731 224.663,88.607 224.241,88.607C223.828,88.607 223.444,88.733 223.089,88.984C222.733,89.235 222.411,89.605 222.122,90.092C221.756,90.71 221.47,91.476 221.266,92.389C221.062,93.301 220.96,94.253 220.96,95.242C220.96,96.356 221.064,97.354 221.273,98.235C221.482,99.117 221.776,99.863 222.157,100.474C222.418,100.9 222.728,101.242 223.085,101.501C223.443,101.76 223.826,101.89 224.234,101.89C224.642,101.89 225.024,101.764 225.379,101.513C225.735,101.261 226.057,100.9 226.346,100.428C226.69,99.871 226.972,99.162 227.192,98.299C227.412,97.437 227.522,96.48 227.522,95.428Z" style="fill-rule:nonzero;"/>
            </g>
        </g>
    </g>
    <defs>
        <linearGradient id="_Linear1" x1="0" y1="0" x2="1" y2="0" gradientUnits="userSpaceOnUse" gradientTransform="matrix(7.10295e-15,-116,116,7.10295e-15,275.06,164.689)"><stop offset="0" style="stop-color:rgb(23,49,66);stop-opacity:1"/><stop offset="1" style="stop-color:rgb(35,100,118);stop-opacity:1"/></linearGradient>
        <linearGradient id="_Linear2" x1="0" y1="0" x2="1" y2="0" gradientUnits="userSpaceOnUse" gradientTransform="matrix(7.10295e-15,-116,116,7.10295e-15,275.06,164.689)"><stop offset="0" style="stop-color:rgb(74,108,47);stop-opacity:1"/><stop offset="1" style="stop-color:rgb(125,173,63);stop-opacity:1"/></linearGradient>
    </defs>
</svg>
